<svg xmlns="http://www.w3.org/2000/svg" viewBox="0 0 512 512">
  <rect width="512" height="512" rx="96" fill="#050505"/>
  <g transform="translate(87 34) scale(0.65)" fill="#ffffff">
    <path d="M 441 0 L 438 3 L 430 39 L 422 57 L 413 66 L 400 73 L 374 79 L 367 83 L 369 87 L 391 91 L 407 96 L 415 101 L 425 112 L 429 122 L 430 135 L 428 147 L 421 167 L 401 200 L 389 215 L 375 229 L 349 248 L 331 255 L 322 254 L 295 238 L 280 231 L 257 224 L 239 221 L 176 221 L 151 225 L 121 233 L 110 229 L 94 214 L 72 187 L 55 160 L 42 134 L 32 109 L 21 74 L 13 40 L 10 20 L 7 21 L 3 55 L 3 138 L 6 179 L 6 244 L 1 306 L 1 362 L 4 388 L 9 411 L 16 432 L 26 453 L 36 469 L 59 496 L 80 514 L 100 528 L 135 546 L 161 555 L 179 559 L 194 561 L 234 561 L 265 556 L 301 543 L 324 531 L 341 520 L 362 503 L 378 487 L 403 454 L 420 422 L 426 407 L 435 379 L 445 333 L 454 257 L 454 142 L 457 117 L 462 107 L 472 98 L 484 93 L 512 88 L 518 85 L 518 83 L 514 80 L 480 72 L 469 66 L 461 59 L 454 46 L 447 21 L 445 8 Z M 300 561 L 282 562 L 247 572 L 219 576 L 192 575 L 175 571 L 169 571 L 168 620 L 171 649 L 179 684 L 184 694 L 190 699 L 194 699 L 203 689 L 254 593 L 256 593 L 249 620 L 234 660 L 218 692 L 200 721 L 190 743 L 190 765 L 192 769 L 200 777 L 208 781 L 215 783 L 232 784 L 252 779 L 260 774 L 274 760 L 287 738 L 296 714 L 301 694 L 306 665 L 309 635 L 308 577 L 306 568 L 304 564 Z M 141 560 L 130 561 L 122 568 L 108 595 L 91 645 L 86 665 L 81 699 L 81 730 L 84 745 L 89 756 L 100 768 L 105 771 L 123 776 L 142 775 L 157 769 L 165 761 L 169 753 L 170 734 L 161 684 L 157 648 L 156 613 L 159 567 L 149 562 Z M 390 367 L 391 376 L 387 391 L 379 412 L 368 434 L 347 464 L 328 483 L 304 500 L 279 511 L 262 515 L 244 515 L 238 512 L 238 497 L 250 467 L 267 441 L 290 416 L 320 392 L 354 373 L 380 364 L 385 364 Z M 35 342 L 42 341 L 53 345 L 75 359 L 106 388 L 128 416 L 145 447 L 154 475 L 156 486 L 156 501 L 155 505 L 151 509 L 138 509 L 112 498 L 100 490 L 85 477 L 66 455 L 55 438 L 47 422 L 36 390 L 31 358 L 31 350 Z M 358 652 L 343 647 L 328 647 L 324 650 L 319 678 L 308 722 L 298 750 L 290 766 L 302 769 L 329 769 L 345 766 L 364 757 L 376 744 L 381 734 L 385 719 L 385 694 L 381 679 L 376 669 L 364 656 Z M 58 628 L 42 632 L 33 637 L 23 647 L 18 655 L 11 678 L 11 709 L 17 731 L 26 744 L 35 751 L 48 756 L 66 757 L 73 755 L 67 721 L 68 686 L 74 656 L 82 631 L 69 628 Z" fill-rule="evenodd" clip-rule="evenodd"/>
  </g>
</svg>
